<svg xmlns="http://www.w3.org/2000/svg" viewBox="0 0 211.43 254.68"><defs><style>.cls-1{fill:#db8b2c;}.cls-2{fill:#444;}</style></defs><g id="Layer_2" data-name="Layer 2"><g id="Layer_1-2" data-name="Layer 1"><path class="cls-1" d="M137.74,186.37c-.61,0-1.23,0-1.84-.06a17.29,17.29,0,0,1-8.3-3c-4.57-3-9.55-5.91-15-7.29a19.83,19.83,0,0,0-4.84-.64,17.42,17.42,0,0,0-8.58,2.31l-5.38,3-3.14,1.74a22.18,22.18,0,0,1-10.86,2.82c-11,0-22-8.47-24.59-18.88a51.25,51.25,0,0,1-1.39-9.58c-.74-7.43,2.14-13.85,8.55-19.09a31.85,31.85,0,0,1,12.14-6.17c4.58-1.2,7.78-4.12,10.37-9.47,1.23-2.52,2.42-5.17,3.54-7.88,3.2-7.71,11.38-12.7,20.84-12.7,8.17,0,15.41,3.85,19.38,10.28a69.25,69.25,0,0,1,5.09,10.39c.66,1.64,1.33,3.12,2,4.51a11.5,11.5,0,0,0,8,6.33,27.56,27.56,0,0,1,20.4,28.06,26.29,26.29,0,0,1-26.41,25.32Z"/><path class="cls-1" d="M165.65,180.57c-9.73,0-17.7-6.26-21.33-16.76-2.84-8.22-1.7-15.87-.6-20.91a78.86,78.86,0,0,1,15.58-33.35c6.84-8.41,14.41-13.1,23.08-14.29A45.05,45.05,0,0,0,184,78.82l-2.43-29.07,19.75,21.47c6.05,6.57,9.43,15,10.05,24.91.52,8.34-1,16.93-4.64,26.26v.18c.51,22.17-8,39.88-25.3,52.64a24.84,24.84,0,0,1-2.91,1.83A26.62,26.62,0,0,1,165.65,180.57Z"/><path class="cls-2" d="M197.37,118.75a10.13,10.13,0,0,0-.68,4c.43,18.37-6.3,33.34-21.24,44.36a15.57,15.57,0,0,1-1.78,1.11c-8.9,4.87-16.58,1.89-19.9-7.72-1.77-5.14-1.42-10.31-.28-15.51,2.35-10.74,6.6-20.62,13.56-29.18,4.69-5.75,10.28-10.27,18.12-10.85,4.62-.33,4.64-.28,6.12-4.73A55.24,55.24,0,0,0,193.92,78c4.92,5.35,7,11.76,7.43,18.76C201.83,104.4,200.13,111.68,197.37,118.75Z"/><path class="cls-1" d="M133.17,146.73a20.56,20.56,0,0,1-12-4c-8.83-6.23-14.84-15-17.88-26.19-4.94-18.13-2.77-37,6.44-56.08A29.72,29.72,0,0,1,119.11,49q1.15-6.45,2.28-12.9c.55-3.09,1.09-6.17,1.64-9.26a25,25,0,0,1,.58-2.47c.09-.34.2-.72.32-1.19l9.8-21.83,9.77,22.8,1,6.56c.93,6.18,1.83,12.08,2.71,18,10.22,10.82,15.66,24.39,16.62,41.43.82,14.72-1,26.48-5.84,37A36.31,36.31,0,0,1,144.92,143a21.23,21.23,0,0,1-11.75,3.75Z"/><path class="cls-2" d="M127,134.55c4.16,2.94,8.27,2.83,12.44.08A26.65,26.65,0,0,0,148.89,123c4.69-10.29,5.58-21.21,5-32.33-.78-13.89-5-26.37-15.14-36.39a4.91,4.91,0,0,1-1.23-3.07c-1.23-8.28-2.49-16.56-3.85-25.56-.37,1.45-.61,2.19-.75,2.94-1.44,8.17-2.86,16.34-4.33,24.51-.18,1-.12,2-1.32,2.65a19,19,0,0,0-8.46,9.06c-7.56,15.67-10.44,32-5.79,49.1C115.25,122.26,119.7,129.42,127,134.55Z"/><path class="cls-1" d="M76.78,147.12a17.94,17.94,0,0,1-11.41-4.2c-6-4.77-10.31-11.1-13.67-19.93-8.24-21.61-6.82-43.44,4.23-64.87a32,32,0,0,1,8.63-10.95c.69-4.26,1.1-8.67,1.53-13.3.21-2.15.41-4.32.64-6.51L71.4,0,85.49,23.69a25.72,25.72,0,0,1,2.67,9.37c.08.63.16,1.23.24,1.68.85,4.35,1.56,8.73,2.26,13l0,.27c8.51,7.59,14,17.87,16.47,30.58,3.11,16.31,2.12,31.57-2.93,45.36-3.78,10.32-10.57,17.61-20.16,21.67a18.7,18.7,0,0,1-7.3,1.54Z"/><path class="cls-2" d="M71.62,135.11a7.8,7.8,0,0,0,8.56,1.26c7.31-3.1,12-8.64,14.67-15.9,4.79-13.08,5.07-26.55,2.49-40-2-10.36-6.43-19.57-14.91-26.36a2.93,2.93,0,0,1-1.18-1.94C80.4,47,79.58,41.79,78.59,36.65c-.52-2.68-.46-5.52-1.91-8.23-.84,7.84-1.28,15.44-2.7,22.93-.18,1-.33,1.91-1.3,2.43-3.73,2-6,5.34-7.86,8.92C55.36,81,53.63,100,61,119.43,63.32,125.42,66.46,131,71.62,135.11Z"/><path class="cls-1" d="M146.2,254.68c-.9,0-1.81,0-2.72-.09a25.45,25.45,0,0,1-12.27-4.43c-6.75-4.38-14.12-8.73-22.18-10.77a29.28,29.28,0,0,0-7.15-.94,25.69,25.69,0,0,0-12.69,3.42l-8,4.41-4.64,2.57a32.71,32.71,0,0,1-16,4.18c-16.3,0-32.6-12.52-36.35-27.91a75.33,75.33,0,0,1-2.06-14.18c-1.09-11,3.16-20.46,12.63-28.2a47.09,47.09,0,0,1,18-9.13c6.76-1.77,11.49-6.09,15.33-14,1.81-3.72,3.57-7.64,5.23-11.65,4.73-11.4,16.83-18.77,30.81-18.77,12.07,0,22.78,5.68,28.65,15.2a101.05,101.05,0,0,1,7.52,15.35c1,2.43,2,4.61,3,6.66,2.51,5,6.16,7.89,11.81,9.37,18.5,4.84,30.91,21.9,30.16,41.48a38.86,38.86,0,0,1-39,37.43Z"/><path class="cls-2" d="M152.55,183.37a27,27,0,0,1-18.22-14.55c-1.22-2.42-2.32-4.9-3.33-7.41a92.4,92.4,0,0,0-6.77-13.85c-9.52-15.46-35.44-12.93-41.7,2.16-1.7,4.1-3.53,8.18-5.47,12.19-4.59,9.43-11.21,16.53-21.8,19.3a37,37,0,0,0-14.16,7.2c-6.18,5-9.9,11.25-9,19.71a66.72,66.72,0,0,0,1.8,12.56c3.29,13.5,22,26.16,37.84,17.35l12.6-7a35.84,35.84,0,0,1,27.14-3.42c9.22,2.34,17.3,7,25.17,12.08a15.52,15.52,0,0,0,7.49,2.84,28.86,28.86,0,0,0,31.1-27.74C175.81,200,166.61,187.05,152.55,183.37Z"/><path class="cls-1" d="M44.6,180.66a23.7,23.7,0,0,1-12.69-3.89c-11-6.91-19-17.16-23.83-30.46a74.48,74.48,0,0,1-4.41-23.08,28.54,28.54,0,0,0-1.21-6,59.21,59.21,0,0,1-1.55-6.92C-.27,102.35-1,91.83,3.45,81a29.73,29.73,0,0,1,7-10.37l19.28-18.4L27.31,78.81A43.62,43.62,0,0,0,29,95.34a28.74,28.74,0,0,1,9.23,3.37,51.31,51.31,0,0,1,17.55,16.18,71.77,71.77,0,0,1,13.05,37.36c.55,9.67-2.45,17.24-8.92,22.49-4.83,3.93-10,5.92-15.35,5.92Z"/><path class="cls-2" d="M53.65,167c4.6-3.74,5.54-8.78,5.23-14.16a61.85,61.85,0,0,0-11.27-32.23A41.23,41.23,0,0,0,33.5,107.51c-2.79-1.52-5.78-2.79-9-2.31-2,.3-2.75-.42-3.4-2.11A55.46,55.46,0,0,1,17.35,77.9a20.12,20.12,0,0,0-4.67,7c-3.24,7.79-3.08,15.82-1.88,24,.7,4.75,2.73,9.22,2.87,14.09a63.93,63.93,0,0,0,3.82,20c3.82,10.6,10.11,19.34,19.73,25.38C43,172,48.39,171.25,53.65,167Z"/></g></g></svg>